<?xml version="1.0" standalone="no"?>
<!DOCTYPE svg PUBLIC "-//W3C//DTD SVG 20010904//EN"
 "http://www.w3.org/TR/2001/REC-SVG-20010904/DTD/svg10.dtd">
<svg version="1.0" xmlns="http://www.w3.org/2000/svg"
 width="128.000000pt" height="128.000000pt" viewBox="0 0 128.000000 128.000000"
 preserveAspectRatio="xMidYMid meet">

<g transform="translate(0.000000,128.000000) scale(0.100000,-0.100000)"
fill="#000000" stroke="none">
<path d="M602 1084 c-21 -15 -22 -20 -22 -199 l0 -185 -187 -2 -187 -3 -16
-27 c-13 -25 -13 -31 0 -55 l16 -28 187 -3 187 -2 2 -187 3 -187 28 -16 c24
-13 30 -13 55 0 l27 16 3 187 2 187 187 2 187 3 16 28 c13 24 13 30 0 55 l-16
27 -187 3 -187 2 0 185 c0 179 -1 184 -22 199 -12 9 -29 16 -38 16 -9 0 -26
-7 -38 -16z"/>
</g>
</svg>
