<svg width="64" height="64" xmlns="http://www.w3.org/2000/svg" xmlns:xlink="http://www.w3.org/1999/xlink" version="1.0" preserveAspectRatio="xMidYMid meet">
  <defs id="defs1">
    <linearGradient id="linearGradient3">
      <stop stop-color="#06c8fa" id="stop4" offset="0.13918"/>
      <stop stop-color="#067da0" id="stop3" offset="0.9201"/>
    </linearGradient>
    <linearGradient y2="1" x2="0.5" y1="0" x1="0.5" id="linearGradient4" xlink:href="#linearGradient3"/>
  </defs>
  <g>
  <title>Layer 1</title>
  <rect x="0" y="0" width="64" height="64" id="svg_3" fill="url(#linearGradient4)" rx="10"/>
  <path d="m30.35181,12.74758c-0.91084,0.6506 -0.95422,0.86747 -0.95422,8.63133l0,8.0241l-8.11085,0.08675l-8.11085,0.13012l-0.69397,1.17109c-0.56386,1.08434 -0.56386,1.34458 0,2.38555l0.69397,1.21446l8.11085,0.13012l8.11085,0.08675l0.08675,8.11085l0.13012,8.11085l1.21446,0.69397c1.04096,0.56386 1.30121,0.56386 2.38555,0l1.17109,-0.69397l0.13012,-8.11085l0.08675,-8.11085l8.11085,-0.08675l8.11085,-0.13012l0.69397,-1.21446c0.56386,-1.04096 0.56386,-1.30121 0,-2.38555l-0.69397,-1.17109l-8.11085,-0.13012l-8.11085,-0.08675l0,-8.0241c0,-7.76386 -0.04337,-7.98073 -0.95422,-8.63133c-0.52048,-0.39037 -1.25783,-0.69397 -1.64819,-0.69397c-0.39037,0 -1.12771,0.30362 -1.64819,0.69397z" id="svg_2" fill="#101623"/>
 </g>

</svg>