<svg width="64" height="64" xmlns="http://www.w3.org/2000/svg" preserveAspectRatio="xMidYMid meet" version="1.0">

 <g>
  <title>Layer 1</title>
  <rect rx="7" fill="#ffffff" id="svg_3" height="64" width="64" y="-0.21276" x="0.21276"/>
  <path id="svg_2" d="m29.92695,7.78488c-1.14563,0.81831 -1.20019,1.09108 -1.20019,10.85623l0,10.09247l-10.20158,0.10911l-10.20158,0.16366l-0.87286,1.47296c-0.7092,1.36385 -0.7092,1.69117 0,3.00047l0.87286,1.52751l10.20158,0.16366l10.20158,0.10911l0.10911,10.20158l0.16366,10.20158l1.52751,0.87286c1.30929,0.7092 1.63662,0.7092 3.00047,0l1.47296,-0.87286l0.16366,-10.20158l0.10911,-10.20158l10.20158,-0.10911l10.20158,-0.16366l0.87286,-1.52751c0.7092,-1.30929 0.7092,-1.63662 0,-3.00047l-0.87286,-1.47296l-10.20158,-0.16366l-10.20158,-0.10911l0,-10.09247c0,-9.76515 -0.05455,-10.03792 -1.20019,-10.85623c-0.65465,-0.49099 -1.58206,-0.87286 -2.07305,-0.87286c-0.49099,0 -1.4184,0.38188 -2.07305,0.87286z"/>
 </g>
</svg>