<?xml version="1.0" standalone="no"?>
<!DOCTYPE svg PUBLIC "-//W3C//DTD SVG 20010904//EN"
 "http://www.w3.org/TR/2001/REC-SVG-20010904/DTD/svg10.dtd">
<svg version="1.0" xmlns="http://www.w3.org/2000/svg"
 width="128.000000pt" height="128.000000pt" viewBox="0 0 128.000000 128.000000"
 preserveAspectRatio="xMidYMid meet">

<g transform="translate(0.000000,128.000000) scale(0.100000,-0.100000)"
fill="#000000" stroke="none">
<path d="M92 1188 c-19 -19 -17 -1081 2 -1097 9 -8 162 -10 551 -9 500 3 539
4 549 21 8 12 8 22 0 35 -10 16 -48 17 -523 20 l-511 2 0 508 c0 525 -1 532
-40 532 -9 0 -21 -5 -28 -12z"/>
<path d="M935 730 c-115 -116 -213 -209 -216 -208 -3 2 -45 47 -94 101 -48 53
-95 97 -104 97 -23 0 -281 -238 -281 -259 0 -21 19 -41 40 -41 8 0 65 45 125
100 l110 101 95 -101 c52 -55 102 -100 110 -100 20 0 480 461 480 481 0 19
-20 39 -40 39 -8 0 -110 -95 -225 -210z"/>
</g>
</svg>
