<svg width="128" height="128" xmlns="http://www.w3.org/2000/svg" data-name="Layer 1">

 <g>
  <title>Layer 1</title>
  <g id="svg_3">
   <path id="svg_1" d="m96.23641,44.78905c-0.08215,-0.51929 -0.91536,-5.18412 -4.29516,-8.59033c-3.39447,-3.32112 -8.0769,-4.1426 -8.59913,-4.22475c-0.69532,-0.11442 -1.40532,0.03227 -2.00089,0.40194c-0.2083,0.12909 -3.26831,2.0449 -9.30912,7.15274c3.10695,1.09726 7.1234,3.00133 10.37998,6.1875c3.26831,3.1979 5.22226,7.1322 6.343,10.18341c5.04623,-5.89705 6.94444,-8.88371 7.07059,-9.08908c0.37553,-0.60144 0.52223,-1.32023 0.41074,-2.02143z" fill="#e2e3ec"/>
   <path id="svg_2" d="m66.78931,44.1172c-3.14803,2.83997 -6.81241,6.29019 -11.00782,10.45626c-17.78796,17.66181 -22.45279,24.7236 -22.64349,25.01405c-0.26698,0.41074 -0.42834,0.88309 -0.46648,1.37011l-0.9359,11.94372c-0.06454,0.85669 0.24351,1.69577 0.85082,2.30308c0.55156,0.55156 1.2997,0.85962 2.07717,0.85962c0.07335,0 0.14963,0 0.22591,-0.0088l12.03174,-0.9271c0.48409,-0.03814 0.95057,-0.19363 1.35837,-0.45475c0.29339,-0.18777 7.40212,-4.82032 25.18715,-22.4792c4.2893,-4.25996 7.82753,-7.96835 10.72324,-11.13985c-0.44301,-1.90407 -1.98915,-7.33757 -5.88238,-11.14278c-3.94897,-3.86389 -9.63185,-5.37776 -11.52125,-5.79436l0.00293,0z" fill="#e2e3ec"/>
  </g>
 </g>
</svg>