<?xml version="1.0" standalone="no"?>
<!DOCTYPE svg PUBLIC "-//W3C//DTD SVG 20010904//EN"
 "http://www.w3.org/TR/2001/REC-SVG-20010904/DTD/svg10.dtd">
<svg version="1.0" xmlns="http://www.w3.org/2000/svg"
 width="128.000000pt" height="128.000000pt" viewBox="0 0 128.000000 128.000000"
 preserveAspectRatio="xMidYMid meet">

<g transform="translate(0.000000,128.000000) scale(0.100000,-0.100000)"
fill="#000000" stroke="none">
<path d="M196 1230 c-15 -5 -37 -17 -48 -27 -47 -41 -48 -53 -48 -565 0 -440
2 -486 18 -517 33 -66 58 -76 206 -79 114 -3 135 -1 149 13 21 20 21 29 1 49
-12 13 -40 16 -144 16 -122 0 -130 1 -144 22 -14 20 -16 84 -16 498 0 414 2
478 16 498 l15 22 418 0 c311 0 420 -3 429 -12 8 -8 12 -66 12 -196 0 -190 6
-222 40 -222 36 0 42 32 38 229 -3 203 -8 221 -65 258 -25 16 -64 18 -438 20
-225 1 -423 -2 -439 -7z"/>
<path d="M336 1004 c-21 -21 -20 -30 6 -48 19 -14 63 -16 276 -16 155 0 261 4
273 10 23 13 25 55 3 64 -9 3 -134 6 -279 6 -226 0 -266 -2 -279 -16z"/>
<path d="M332 798 c-16 -16 -15 -23 4 -42 13 -14 53 -16 282 -16 147 0 273 4
280 9 8 4 12 19 10 32 l-3 24 -280 3 c-210 2 -284 -1 -293 -10z"/>
<path d="M975 621 c-16 -10 -107 -97 -201 -192 l-172 -174 -12 -73 c-22 -122
5 -148 129 -127 l74 13 188 188 c160 161 188 195 194 227 10 50 -18 113 -60
138 -39 24 -102 24 -140 0z m114 -78 c24 -30 21 -55 -12 -90 -28 -31 -37 -29
-82 18 l-40 40 33 30 c41 36 74 37 101 2z m-213 -292 c-113 -113 -122 -120
-168 -126 -27 -4 -51 -5 -53 -4 -2 2 1 27 6 54 9 46 18 59 127 168 l117 117
45 -45 45 -45 -119 -119z"/>
<path d="M331 591 c-7 -13 -7 -23 2 -35 11 -14 32 -16 161 -14 126 3 150 6
159 20 8 12 7 21 -2 32 -11 13 -39 16 -162 16 -134 0 -149 -2 -158 -19z"/>
</g>
</svg>
