<svg width="64" height="64" xmlns="http://www.w3.org/2000/svg" xmlns:xlink="http://www.w3.org/1999/xlink" data-name="Layer 1">
  <defs id="defs1">
    <linearGradient id="linearGradient3">
      <stop stop-color="#06c8fa" id="stop4" offset="0.13918"/>
      <stop stop-color="#067da0" id="stop3" offset="0.9201"/>
    </linearGradient>
    <linearGradient y2="1" x2="0.5" y1="0.3" x1="0.5" id="linearGradient4" xlink:href="#linearGradient3"/>
  </defs>
  <g>
  <title>Layer 1</title>
  <rect fill="url(#linearGradient4)" x="0" y="0" width="64" height="64" id="svg_3" rx="10"/>
  <path d="m16.90247,30.11281l13.21034,0l0,-13.21034l-13.21034,0l0,13.21034zm3.77439,-9.43596l5.66158,0l0,5.66158l-5.66158,0l0,-5.66158zm26.42068,-3.77439l-13.21034,0l0,13.21034l13.21034,0l0,-13.21034zm-3.77439,9.43596l-5.66158,0l0,-5.66158l5.66158,0l0,5.66158zm-26.42068,20.7591l13.21034,0l0,-13.21034l-13.21034,0l0,13.21034zm3.77439,-9.43596l5.66158,0l0,5.66158l-5.66158,0l0,-5.66158zm-5.66158,13.21034l7.54876,0l0,3.77439l-7.54876,0c-3.12141,0 -5.66158,-2.54016 -5.66158,-5.66158l0,-7.54876l3.77439,0l0,7.54876c0,1.03984 0.84735,1.88719 1.88719,1.88719zm35.85664,-9.43596l3.77439,0l0,7.54876c0,3.12141 -2.54016,5.66158 -5.66158,5.66158l-7.54876,0l0,-3.77439l7.54876,0c1.03984,0 1.88719,-0.84735 1.88719,-1.88719l0,-7.54876zm3.77439,-26.42068l0,7.54876l-3.77439,0l0,-7.54876c0,-1.03984 -0.84735,-1.88719 -1.88719,-1.88719l-7.54876,0l0,-3.77439l7.54876,0c3.12141,0 5.66158,2.54016 5.66158,5.66158zm-41.51822,7.54876l-3.77439,0l0,-7.54876c0,-3.12141 2.54016,-5.66158 5.66158,-5.66158l7.54876,0l0,3.77439l-7.54876,0c-1.03984,0 -1.88719,0.84735 -1.88719,1.88719l0,7.54876zm20.7591,18.87192l5.66158,0l0,5.66158l-5.66158,0l0,-5.66158zm7.54876,-1.88719l0,-5.66158l5.66158,0l0,5.66158l-5.66158,0zm-7.54876,-5.66158l5.66158,0l0,5.66158l-5.66158,0l0,-5.66158z" id="svg_1" fill="#101623"/>
 </g>

</svg>