<svg width="64" height="64" xmlns="http://www.w3.org/2000/svg" data-name="Layer 1">

 <g>
  <title>Layer 1</title>
  <rect rx="7" id="svg_3" height="64" width="64" y="0" x="0" fill="#ffffff"/>
  <path id="svg_1" d="m12.88889,29.61111l16.72222,0l0,-16.72222l-16.72222,0l0,16.72222zm4.77778,-11.94444l7.16667,0l0,7.16667l-7.16667,0l0,-7.16667zm33.44444,-4.77778l-16.72222,0l0,16.72222l16.72222,0l0,-16.72222zm-4.77778,11.94444l-7.16667,0l0,-7.16667l7.16667,0l0,7.16667zm-33.44444,26.27777l16.72222,0l0,-16.72222l-16.72222,0l0,16.72222zm4.77778,-11.94444l7.16667,0l0,7.16667l-7.16667,0l0,-7.16667zm-7.16667,16.72222l9.55555,0l0,4.77778l-9.55555,0c-3.95122,0 -7.16667,-3.21544 -7.16667,-7.16667l0,-9.55555l4.77778,0l0,9.55555c0,1.31628 1.07261,2.38889 2.38889,2.38889zm45.38888,-11.94444l4.77778,0l0,9.55555c0,3.95122 -3.21544,7.16667 -7.16667,7.16667l-9.55555,0l0,-4.77778l9.55555,0c1.31628,0 2.38889,-1.07261 2.38889,-2.38889l0,-9.55555zm4.77778,-33.44444l0,9.55555l-4.77778,0l0,-9.55555c0,-1.31628 -1.07261,-2.38889 -2.38889,-2.38889l-9.55555,0l0,-4.77778l9.55555,0c3.95122,0 7.16667,3.21544 7.16667,7.16667zm-52.55555,9.55555l-4.77778,0l0,-9.55555c0,-3.95122 3.21544,-7.16667 7.16667,-7.16667l9.55555,0l0,4.77778l-9.55555,0c-1.31628,0 -2.38889,1.07261 -2.38889,2.38889l0,9.55555zm26.27777,23.88889l7.16667,0l0,7.16667l-7.16667,0l0,-7.16667zm9.55555,-2.38889l0,-7.16667l7.16667,0l0,7.16667l-7.16667,0zm-9.55555,-7.16667l7.16667,0l0,7.16667l-7.16667,0l0,-7.16667z"/>
 </g>
</svg>