<svg width="456" height="456" xmlns="http://www.w3.org/2000/svg" xmlns:xlink="http://www.w3.org/1999/xlink" xml:space="preserve" version="1.1">
 <defs id="defs1">
  <linearGradient id="linearGradient3">
   <stop stop-color="#06c8fa" id="stop4" offset="0.13918"/>
   <stop stop-color="#067da0" id="stop3" offset="0.9201"/>
  </linearGradient>
  <linearGradient y2="0.98732" x2="0.52993" y1="0.0798" x1="0.53171" id="linearGradient4" xlink:href="#linearGradient3"/>
 </defs>
 <g>
  <title>Layer 1</title>
  <rect id="svg_1" height="456" width="456" y="0" x="0" fill="#101623"/>
  <g id="layer2">
   <path stroke-width="0.27591" fill="url(#linearGradient4)" transform="translate(173.049, 188.702) scale(0.264583)" id="path2" d="m296.65189,502.704c0,-0.24716 4.36203,-7.10325 9.69336,-15.23569c16.16988,-24.66564 26.55875,-47.7565 33.30348,-74.02221c2.62326,-10.2157 3.52925,-15.93769 3.52925,-22.28999c0,-12.00011 -0.53749,-12.55429 -11.30509,-11.65629c-4.68154,0.3904 -15.33561,1.84573 -23.67576,3.23404c-22.73294,3.78414 -31.34245,4.65082 -46.15418,4.64625c-35.47645,-0.01125 -61.32705,-9.86104 -81.77334,-31.15886c-11.53343,-12.01376 -17.61355,-22.19544 -22.44872,-37.59218c-4.62337,-14.72228 -6.08122,-26.92585 -6.91669,-57.8991c-0.85948,-31.86269 -1.71307,-36.7039 -6.47161,-36.7039c-9.21103,0 -43.10481,36.94716 -60.22772,65.65345c-8.57137,14.36976 -17.78113,34.99892 -20.92516,46.87076c-2.50088,9.44331 -2.6739,11.77687 -3.13743,42.31682c-0.33298,21.93995 -0.09703,35.05822 0.73462,40.83954c2.51022,17.45003 16.53478,45.48673 33.9275,67.82499c7.51345,9.64985 7.40843,9.72317 -5.45198,3.80751c-14.3632,-6.6069 -34.11135,-20.13356 -55.31432,-37.88795c-50.69357,-42.4485 -82.23784,-99.39184 -92.72741,-167.39033c-2.60747,-16.90301 -2.61993,-58.79226 -0.0225,-75.47564c4.55766,-29.27319 11.78344,-51.6889 25.64552,-79.55716c16.60611,-33.38479 29.18902,-51.06657 82.07619,-115.33538c41.42047,-50.33434 57.73722,-71.44613 74.13477,-95.92102c23.61957,-35.25445 34.87159,-57.70388 48.50916,-96.78317c7.18921,-20.601 10.48334,-26.60964 15.58626,-28.42991c5.44234,-1.94137 13.5156,4.14236 29.04808,21.88955c45.51332,52.00279 69.05004,96.89696 77.92097,148.62723c2.41293,14.07088 2.40764,43.2446 -0.01125,59.92253c-2.10107,14.48903 -6.26998,36.17105 -12.52414,65.13651c-9.49026,43.95319 -9.89154,53.76087 -2.78615,68.1001c11.07454,22.3494 37.50296,35.33276 64.88267,31.87462c16.08066,-2.03101 31.84848,-8.90581 43.05909,-18.77376c7.14147,-6.28619 14.00652,-16.24673 24.47107,-35.50533c5.19199,-9.55519 10.48248,-18.78943 11.75658,-20.52055c2.83423,-3.85079 7.42764,-6.36971 10.0803,-5.52778c3.05552,0.96979 7.50358,7.273 13.3055,18.85484c13.32492,26.59933 23.31964,58.58227 27.70931,88.6691c2.26808,15.54553 2.53989,54.35488 0.4779,68.23823c-9.43926,63.55519 -35.64219,113.97429 -82.41378,158.57889c-13.46636,12.84245 -32.07025,27.35136 -44.6424,34.81597c-14.48726,8.60164 -50.92236,25.6058 -50.92236,23.76528l0.00041,0z"/>
  </g>
 </g>
</svg>