<svg width="456" height="456" xmlns="http://www.w3.org/2000/svg" clip-rule="evenodd" version="1.1">

 <g>
  <title>Layer 1</title>
  <rect id="svg_24" height="456" width="455.99998" x="0.00002" fill="#1e2233"/>
  <g id="svg_23">
   <g id="svg_1">
    <path id="svg_2" opacity="0.991" d="m243.91401,156.47009c-0.739,-0.131 -1.406,0.0357 -2,0.5c-28.868,29.0349 -57.868,57.868 -87,86.5c3.1515,-13.635 8.9848,-25.968 17.5,-37c11.7589,-13.0884 22.7589,-26.7551 33,-41c5.991,-9.9752 10.824,-20.4752 14.5,-31.5c2,-0.6667 4,-0.6667 6,0c6.974,6.7976 12.974,14.2976 18,22.5z" fill="#08c6f9"/>
   </g>
   <g id="svg_3">
    <path id="svg_4" opacity="0.991" d="m243.91401,156.47009c2.79,3.9156 4.79,8.249 6,13c-32.027,31.3604 -63.6937,63.027 -95,95c-1.1037,-6.94 -1.1037,-13.94 0,-21c29.132,-28.632 58.132,-57.4651 87,-86.5c0.594,-0.4643 1.261,-0.631 2,-0.5z" fill="#0dbdf5"/>
   </g>
   <g id="svg_5">
    <path id="svg_6" opacity="0.996" d="m249.91401,169.47009c1.618,3.3878 2.618,7.0544 3,11c-0.617,-0.1107 -1.117,-0.444 -1.5,-1c-31.701,31.535 -63.2015,63.201 -94.5,95c-1.5114,-3.044 -2.178,-6.378 -2,-10c31.3063,-31.973 62.973,-63.6396 95,-95z" fill="#11b7f2"/>
   </g>
   <g id="svg_7">
    <path id="svg_8" opacity="0.995" d="m252.91401,180.47009c0,6 0,12 0,18c-30.416,28.915 -60.416,58.415 -90,88.5c-0.5944,0.464 -1.2611,0.631 -2,0.5c-2.1346,-4.071 -3.4679,-8.405 -4,-13c31.2985,-31.799 62.799,-63.465 94.5,-95c0.383,0.556 0.883,0.8893 1.5,1z" fill="#15b2ef"/>
   </g>
   <g id="svg_9">
    <path id="svg_10" opacity="0.982" d="m252.91401,198.47009c-1.762,7.972 -3.596,15.972 -5.5,24c-0.634,3.055 -0.468,6.055 0.5,9c0.131,0.739 -0.036,1.406 -0.5,2c-12.035,11.868 -23.869,23.868 -35.5,36c-0.828,-5.819 -1.328,-11.819 -1.5,-18c-7.988,7.13 -14.1544,15.464 -18.5,25c-0.6174,-0.111 -1.1174,-0.444 -1.5,-1c-7.4218,7.927 -15.2552,15.26 -23.5,22c-2.3627,-3.049 -4.3627,-6.382 -6,-10c0.7389,0.131 1.4056,-0.036 2,-0.5c29.584,-30.085 59.584,-59.585 90,-88.5z" fill="#1aaaeb"/>
   </g>
   <g id="svg_11">
    <path id="svg_12" opacity="0.982" d="m292.91401,223.47009c-22.333,22.667 -44.667,45.333 -67,68c-5.022,-1.689 -8.356,-5.022 -10,-10c14.719,-13.718 28.719,-28.051 42,-43c8.573,1.303 15.406,-1.697 20.5,-9c1.941,-3.548 3.607,-7.214 5,-11c5.149,-2.754 8.316,-1.087 9.5,5z" fill="#2698e3"/>
   </g>
   <g id="svg_13">
    <path id="svg_14" opacity="0.993" d="m292.91401,223.47009c4.242,7.729 6.908,16.062 8,25c-15.386,14.385 -30.052,29.385 -44,45c-8.371,1.776 -16.704,1.943 -25,0.5c-2.223,-0.566 -4.223,-1.4 -6,-2.5c22.333,-22.667 44.667,-45.333 67,-68z" fill="#2b90df"/>
   </g>
   <g id="svg_15">
    <path id="svg_16" opacity="0.99" d="m247.91401,231.47009c2.236,3.794 5.569,6.127 10,7c-13.281,14.949 -27.281,29.282 -42,43c-2.708,-3.456 -4.041,-7.456 -4,-12c11.631,-12.132 23.465,-24.132 35.5,-36c0.464,-0.594 0.631,-1.261 0.5,-2z" fill="#219fe6"/>
   </g>
   <g id="svg_17">
    <path id="svg_18" opacity="0.984" d="m300.91401,248.47009c1.333,5.667 1.333,11.333 0,17c-0.739,-0.131 -1.406,0.036 -2,0.5c-12.868,13.035 -25.868,25.869 -39,38.5c1.303,-3.882 1.97,-7.882 2,-12c-1.716,0.129 -3.383,0.462 -5,1c13.948,-15.615 28.614,-30.615 44,-45z" fill="#3286da"/>
   </g>
   <g id="svg_19">
    <path id="svg_20" opacity="0.976" d="m300.91401,265.47009c-4.245,28.411 -19.578,48.244 -46,59.5c-1.973,0.495 -3.973,0.662 -6,0.5c4.413,-6.489 8.08,-13.489 11,-21c13.132,-12.631 26.132,-25.465 39,-38.5c0.594,-0.464 1.261,-0.631 2,-0.5z" fill="#367fd7"/>
   </g>
   <g id="svg_21">
    <path id="svg_22" opacity="0.969" d="m191.91401,276.47009c-5.7222,17.171 -2.3888,32.337 10,45.5c-0.833,0.833 -1.6667,1.667 -2.5,2.5c-13.4354,-5.941 -24.2688,-14.941 -32.5,-27c8.2448,-6.74 16.0782,-14.073 23.5,-22c0.3826,0.556 0.8826,0.889 1.5,1z" fill="#20a2e8"/>
   </g>
  </g>
 </g>
</svg>