<svg width="256" height="256" xmlns="http://www.w3.org/2000/svg" xmlns:xlink="http://www.w3.org/1999/xlink" xml:space="preserve" version="1.1">
 <defs id="defs1">
  <linearGradient id="linearGradient3">
   <stop stop-color="#06c8fa" id="stop4" offset="0.13918"/>
   <stop stop-color="#067da0" id="stop3" offset="0.9201"/>
  </linearGradient>
  <linearGradient y2="0.98732" x2="0.52993" y1="0.0798" x1="0.53171" id="linearGradient4" xlink:href="#linearGradient3"/>
 </defs>
 <g>
  <title>Layer 1</title>
  <g id="layer2">
   <path stroke-width="0.27591" fill="url(#linearGradient4)" transform="translate(52.6606) scale(0.264583)" id="path2" d="m360.46949,636.46512c0,-0.21037 3.71273,-6.04591 8.25048,-12.96782c13.76296,-20.99411 22.60542,-40.64783 28.34618,-63.00384c2.23278,-8.69507 3.00391,-13.56532 3.00391,-18.97208c0,-10.21387 -0.45749,-10.68556 -9.6223,-9.92123c-3.98468,0.33229 -13.05287,1.57099 -20.15157,2.75265c-19.34909,3.22086 -26.67706,3.95854 -39.28402,3.95464c-30.1957,-0.00958 -52.19838,-8.39321 -69.60119,-26.52079c-9.81665,-10.22549 -14.99174,-18.8916 -19.10718,-31.9965c-3.93517,-12.53083 -5.17601,-22.91788 -5.88713,-49.28068c-0.73155,-27.11986 -1.45808,-31.24044 -5.5083,-31.24044c-7.83995,0 -36.68856,31.44749 -51.26268,55.88078c-7.2955,12.23079 -15.13437,29.78925 -17.8104,39.89394c-2.12862,8.03765 -2.27588,10.02386 -2.67042,36.01786c-0.28341,18.67414 -0.08258,29.83972 0.62527,34.76048c2.13657,14.85255 14.07354,38.71592 28.87731,57.72909c6.39505,8.21345 6.30567,8.27586 -4.64044,3.24075c-12.2252,-5.62345 -29.0338,-17.13664 -47.08065,-32.24824c-43.14772,-36.12994 -69.99655,-84.59714 -78.92472,-142.4739c-2.21935,-14.38696 -2.22994,-50.0409 -0.01915,-64.24091c3.87924,-24.91581 10.02945,-43.99489 21.82812,-67.71489c14.13425,-28.41539 24.84417,-43.46519 69.85896,-98.16744c35.25494,-42.84196 49.14291,-60.81121 63.09964,-81.64296c20.10374,-30.00674 29.68088,-49.11453 41.28846,-82.37677c6.11908,-17.53449 8.92287,-22.64874 13.26621,-24.19805c4.63224,-1.65239 11.50377,3.52576 24.7242,18.63124c38.73856,44.26205 58.77178,82.47362 66.32226,126.50372c2.05376,11.97639 2.04926,36.80754 -0.00958,51.00293c-1.78832,12.3323 -5.33668,30.78691 -10.65989,55.44079c-8.07762,37.41066 -8.41916,45.75844 -2.37143,57.96324c9.42607,19.02264 31.92056,30.0734 55.22473,27.13001c13.68701,-1.72869 27.10776,-7.58016 36.64965,-15.97924c6.07844,-5.35047 11.92161,-13.82837 20.82849,-30.22028c4.41915,-8.13287 8.92214,-15.99258 10.00659,-17.46602c2.41235,-3.27759 6.32201,-5.42156 8.57983,-4.70496c2.6007,0.82543 6.38666,6.1904 11.32494,16.04826c11.34148,22.63996 19.84846,49.86216 23.58472,75.4705c1.93047,13.23154 2.16182,46.26403 0.40676,58.08081c-8.0342,54.09485 -30.33676,97.00896 -70.1463,134.97405c-11.46186,10.93082 -27.29652,23.28004 -37.99727,29.63353c-12.3308,7.32127 -43.34245,21.79432 -43.34245,20.22777l0.00035,0z"/>
  </g>
  <text transform="matrix(1, 0, 0, 1, 0, 0)" font-weight="bold" font-style="italic" xml:space="preserve" text-anchor="start" font-family="'Noto Sans Display'" font-size="24" stroke-width="0.27591" id="svg_1" y="213.67114" x="19.13535" fill="url(#linearGradient4)">by Vitalii Voitovych</text>
 </g>
</svg>