<svg width="256" height="256" xmlns="http://www.w3.org/2000/svg" clip-rule="evenodd" version="1.1">

 <g>
  <title>Layer 1</title>
  <g id="svg_27">
   <g id="svg_23">
    <g id="svg_1">
     <path id="svg_2" opacity="0.991" d="m139.96552,36.41501c-0.55564,-0.0985 -1.05715,0.02684 -1.50377,0.37594c-21.70543,21.83092 -43.51012,43.51012 -65.41405,65.0381c2.36957,-10.25196 6.75554,-19.52496 13.158,-27.81977c8.84135,-9.84098 17.11209,-20.11677 24.81222,-30.82731c4.50455,-7.50021 8.13841,-15.39501 10.90234,-23.6844c1.50377,-0.50128 3.00754,-0.50128 4.51131,0c5.24365,5.11102 9.75496,10.75016 13.53394,16.91743z" fill="#08c6f9"/>
    </g>
    <g id="svg_3">
     <path id="svg_4" opacity="0.991" d="m139.96552,36.41501c2.09776,2.94408 3.60153,6.2023 4.51131,9.77451c-24.08064,23.57943 -47.89038,47.38909 -71.42913,71.42913c-0.82986,-5.21809 -0.82986,-10.48129 0,-15.7896c21.90393,-21.52799 43.70861,-43.20718 65.41405,-65.0381c0.44662,-0.3491 0.94813,-0.47444 1.50377,-0.37594z" fill="#0dbdf5"/>
    </g>
    <g id="svg_5">
     <path id="svg_6" opacity="0.996" d="m144.47683,46.18952c1.21655,2.54724 1.96844,5.3041 2.25566,8.27074c-0.46391,-0.08323 -0.83986,-0.33384 -1.12783,-0.75189c-23.83553,23.71071 -47.5203,47.51992 -71.05319,71.42913c-1.1364,-2.28874 -1.63761,-4.79553 -1.50377,-7.51886c23.53876,-24.04004 47.34849,-47.8497 71.42913,-71.42913z" fill="#11b7f2"/>
    </g>
    <g id="svg_7">
     <path id="svg_8" opacity="0.995" d="m146.73249,54.46027c0,4.51131 0,9.02263 0,13.53394c-22.86935,21.74077 -45.42592,43.9214 -67.6697,66.54187c-0.44692,0.34887 -0.9482,0.47444 -1.50377,0.37594c-1.60497,-3.06093 -2.60746,-6.3196 -3.00754,-9.77451c23.53289,-23.90921 47.21766,-47.71842 71.05319,-71.42913c0.28797,0.41805 0.66391,0.66865 1.12783,0.75189z" fill="#15b2ef"/>
    </g>
    <g id="svg_9">
     <path id="svg_10" opacity="0.982" d="m146.73249,67.99421c-1.32482,5.99403 -2.70378,12.00912 -4.13537,18.04525c-0.4767,2.29701 -0.35188,4.55267 0.37594,6.76697c0.0985,0.55564 -0.02707,1.05715 -0.37594,1.50377c-9.04894,8.92338 -17.94676,17.94601 -26.69194,27.06788c-0.62256,-4.37522 -0.9985,-8.88654 -1.12783,-13.53394c-6.00606,5.36094 -10.64249,11.62716 -13.90988,18.79714c-0.46421,-0.08346 -0.84016,-0.33384 -1.12783,-0.75189c-5.58034,5.9602 -11.47017,11.47377 -17.66931,16.54148c-1.77648,-2.2925 -3.28025,-4.79853 -4.51131,-7.51886c0.55557,0.0985 1.05685,-0.02707 1.50377,-0.37594c22.24378,-22.62048 44.80035,-44.8011 67.6697,-66.54187z" fill="#1aaaeb"/>
    </g>
    <g id="svg_11">
     <path id="svg_12" opacity="0.982" d="m176.80791,86.79135c-16.79186,17.04299 -33.58447,34.08523 -50.37633,51.12822c-3.77597,-1.26993 -6.28276,-3.77597 -7.51886,-7.51886c11.067,-10.31437 21.5934,-21.09114 31.57919,-32.33108c6.44592,0.97971 11.58355,-1.27595 15.41365,-6.76697c1.45941,-2.66769 2.71205,-5.4241 3.75943,-8.27074c3.87146,-2.07069 6.25268,-0.8173 7.14291,3.75943z" fill="#2698e3"/>
    </g>
    <g id="svg_13">
     <path id="svg_14" opacity="0.993" d="m176.80791,86.79135c3.1895,5.81132 5.19403,12.07679 6.01508,18.79714c-11.56851,10.81587 -22.59567,22.09416 -33.08297,33.83485c-6.29403,1.33535 -12.5595,1.46091 -18.79714,0.37594c-1.67144,-0.42557 -3.17521,-1.05264 -4.51131,-1.87971c16.79186,-17.04299 33.58447,-34.08523 50.37633,-51.12822z" fill="#2b90df"/>
    </g>
    <g id="svg_15">
     <path id="svg_16" opacity="0.99" d="m142.97306,92.80643c1.68122,2.85265 4.18725,4.6068 7.51886,5.2632c-9.98579,11.23994 -20.51219,22.01671 -31.57919,32.33108c-2.03611,-2.59852 -3.03837,-5.60606 -3.00754,-9.02263c8.74518,-9.12188 17.643,-18.1445 26.69194,-27.06788c0.34887,-0.44662 0.47444,-0.94813 0.37594,-1.50377z" fill="#219fe6"/>
    </g>
    <g id="svg_17">
     <path id="svg_18" opacity="0.984" d="m182.823,105.58849c1.00226,4.26094 1.00226,8.52112 0,12.78206c-0.55564,-0.0985 -1.05715,0.02707 -1.50377,0.37594c-9.67526,9.80083 -19.44978,19.45053 -29.32354,28.9476c0.97971,-2.91882 1.48121,-5.92636 1.50377,-9.02263c-1.29024,0.09699 -2.54363,0.34737 -3.75943,0.75189c10.4873,-11.74069 21.51445,-23.01898 33.08297,-33.83485z" fill="#3286da"/>
    </g>
    <g id="svg_19">
     <path id="svg_20" opacity="0.976" d="m182.823,118.37054c-3.19175,21.36182 -14.72042,36.27397 -34.58674,44.73719c-1.48347,0.37218 -2.98724,0.49775 -4.51131,0.37594c3.31807,-4.87899 6.07524,-10.14218 8.27074,-15.7896c9.87376,-9.49707 19.64827,-19.14677 29.32354,-28.9476c0.44662,-0.34887 0.94813,-0.47444 1.50377,-0.37594z" fill="#367fd7"/>
    </g>
    <g id="svg_21">
     <path id="svg_22" opacity="0.969" d="m100.86747,126.64128c-4.30244,12.91063 -1.7961,24.31372 7.51886,34.21079c-0.62632,0.62632 -1.25317,1.25339 -1.87971,1.87971c-10.10188,-4.46695 -18.24736,-11.23392 -24.43628,-20.30091c6.19915,-5.06771 12.08897,-10.58129 17.66931,-16.54148c0.28767,0.41805 0.66361,0.66843 1.12783,0.75189z" fill="#20a2e8"/>
    </g>
   </g>
   <text opacity="0.976" font-style="italic" font-weight="bold" xml:space="preserve" text-anchor="start" font-family="'Noto Sans Display'" font-size="24" id="svg_25" y="194.65813" x="19.63968" stroke-width="0" fill="#367fd7">by Vitalii Voitovych</text>
  </g>
 </g>
</svg>