<svg width="256" height="256" xmlns="http://www.w3.org/2000/svg" xmlns:xlink="http://www.w3.org/1999/xlink" version="1.1" xml:space="preserve">
 <defs id="defs1">
  <linearGradient id="linearGradient3">
   <stop offset="0.13918" id="stop4" stop-color="#06c8fa"/>
   <stop offset="0.9201" id="stop3" stop-color="#067da0"/>
  </linearGradient>
  <linearGradient xlink:href="#linearGradient3" id="linearGradient4" x1="0.53171" y1="0.0798" x2="0.52993" y2="0.98732"/>
 </defs>
 <g>
  <title>Layer 1</title>
  <g id="layer2">
   <path d="m372.37378,832.62788c0,-0.24344 4.2964,-6.99637 9.54751,-15.00645c15.92659,-24.29453 26.15915,-47.03795 32.8024,-72.90849c2.58379,-10.062 3.47615,-15.69788 3.47615,-21.95462c0,-11.81956 -0.52941,-12.3654 -11.13499,-11.48092c-4.6111,0.38453 -15.10487,1.81796 -23.31954,3.18539c-22.3909,3.7272 -30.87088,4.58085 -45.45974,4.57634c-34.94268,-0.01109 -60.40433,-9.71268 -80.54299,-30.69004c-11.3599,-11.83301 -17.34855,-21.86149 -22.11096,-37.02657c-4.55381,-14.50076 -5.98972,-26.52073 -6.81263,-57.02795c-0.84655,-31.38329 -1.6873,-36.15166 -6.37424,-36.15166c-9.07245,0 -42.45626,36.39126 -59.32153,64.66563c-8.4424,14.15356 -17.5136,34.47233 -20.61032,46.16555c-2.46325,9.30122 -2.63366,11.59968 -3.09023,41.68012c-0.32796,21.60985 -0.09556,34.53073 0.72357,40.22507c2.47245,17.18748 16.286,44.80233 33.41703,66.80451c7.4004,9.50466 7.29697,9.57688 -5.36995,3.75022c-14.14709,-6.5075 -33.59812,-19.83064 -54.48206,-37.31789c-49.93084,-41.80982 -81.0005,-97.8964 -91.33224,-164.8718c-2.56825,-16.64869 -2.5805,-57.90768 -0.02216,-74.34003c4.48908,-28.83275 11.60615,-50.9112 25.25965,-78.36015c16.35625,-32.88249 28.74985,-50.29822 80.84128,-113.60005c40.79726,-49.57702 56.86852,-70.37116 73.01935,-94.47781c23.26419,-34.72401 34.34692,-56.83568 47.7793,-95.32698c7.08104,-20.29103 10.32561,-26.20928 15.35175,-28.00215c5.36046,-1.91216 13.31224,4.08003 28.61102,21.5602c44.82853,51.22035 68.01112,95.43905 76.74858,146.39099c2.37663,13.85916 2.37142,42.59394 -0.01109,59.02095c-2.06946,14.27102 -6.17564,35.62683 -12.3357,64.15647c-9.34748,43.29188 -9.74271,52.95199 -2.74424,67.07547c10.90791,22.01313 36.9387,34.80115 63.90644,31.39504c15.8387,-2.00045 31.36929,-8.77181 42.41123,-18.49129c7.03401,-6.1916 13.79577,-16.00229 24.10287,-34.97112c5.11387,-9.41141 10.32476,-18.50673 11.5797,-20.2118c2.79159,-3.79285 7.31587,-6.27387 9.92864,-5.44461c3.00955,0.95519 7.39069,7.16357 13.1053,18.57116c13.12444,26.19912 22.96878,57.70084 27.2924,87.33499c2.23395,15.31163 2.50167,53.53706 0.47071,67.21152c-9.29723,62.59894 -35.10591,112.25945 -81.17379,156.19292c-13.26374,12.64922 -31.58772,26.93983 -43.97071,34.29213c-14.26929,8.47222 -50.15619,25.22054 -50.15619,23.40772l0.00041,0l0.00001,0z" id="path2" transform="translate(52.6606) scale(0.264583)" fill="url(#linearGradient4)" stroke-width="0.27591"/>
  </g>
 </g>
</svg>